<?xml version="1.0" standalone="no"?><!DOCTYPE svg PUBLIC "-//W3C//DTD SVG 1.1//EN" "http://www.w3.org/Graphics/SVG/1.1/DTD/svg11.dtd"><svg t="1647851768736" class="icon" viewBox="0 0 1132 1024" version="1.1" xmlns="http://www.w3.org/2000/svg" p-id="11209" xmlns:xlink="http://www.w3.org/1999/xlink" width="221.09375" height="200"><defs><style type="text/css"></style></defs><path d="M1094.249025 528.262522a38.040988 38.040988 0 0 1-24.536438-9.066435L566.049904 87.304068 62.387221 519.196087a38.040988 38.040988 0 0 1-49.136277-57.441892L541.513467 9.066436a38.040988 38.040988 0 0 1 49.136276 0l528.262522 452.687759a38.040988 38.040988 0 0 1 4.184509 53.257383 36.96316 36.96316 0 0 1-28.720946 13.250944z" p-id="11210"></path><path d="M868.285555 1024H263.814253a113.679153 113.679153 0 0 1-113.362145-113.362145V381.614513a38.040988 38.040988 0 0 1 75.574763 0v529.023342a38.040988 38.040988 0 0 0 38.040989 38.040988h604.598105a38.040988 38.040988 0 0 0 38.040988-38.040988V381.614513a38.040988 38.040988 0 0 1 75.574763 0v529.023342a113.425546 113.425546 0 0 1-113.362144 113.362145z"  p-id="11211"></path><path d="M685.752213 603.900687H446.347595a29.925577 29.925577 0 1 1 0-59.851154h239.341217a29.925577 29.925577 0 1 1 0 59.851154z"  p-id="11212"></path><path d="M566.049904 573.911708a30.876602 30.876602 0 0 1-21.239552-8.686025L447.869234 468.284564a29.798774 29.798774 0 1 1 42.162095-42.162095l76.081977 75.384558 76.081976-76.081976a29.798774 29.798774 0 0 1 42.162095 42.162095L587.416259 564.528265a28.974553 28.974553 0 0 1-21.239552 9.25664z"  p-id="11213"></path><path d="M565.986502 783.327348a29.988979 29.988979 0 0 1-29.925577-29.925577V573.911708a29.925577 29.925577 0 1 1 59.851155 0v179.490063a29.988979 29.988979 0 0 1-29.925578 29.925577z"  p-id="11214"></path><path d="M685.688812 693.614018H446.347595a29.925577 29.925577 0 1 1 0-59.851155h239.341217a29.925577 29.925577 0 1 1 0 59.851155z"  p-id="11215"></path></svg>