<?xml version="1.0" standalone="no"?><!DOCTYPE svg PUBLIC "-//W3C//DTD SVG 1.1//EN" "http://www.w3.org/Graphics/SVG/1.1/DTD/svg11.dtd"><svg t="1647156860482" class="icon" viewBox="0 0 1024 1024" version="1.1" xmlns="http://www.w3.org/2000/svg" p-id="1710" xmlns:xlink="http://www.w3.org/1999/xlink" width="200" height="200"><defs><style type="text/css"></style></defs><path d="M740.266667 896H298.666667c-87.466667 0-157.866667-70.4-157.866667-157.866667V330.666667c0-87.466667 70.4-157.866667 157.866667-157.866667h452.266666c87.466667 0 157.866667 70.4 157.866667 157.866667v396.8c2.133333 91.733333-74.666667 168.533333-168.533333 168.533333zM298.666667 236.8c-51.2 0-93.866667 42.666667-93.866667 93.866667v407.466666c0 51.2 42.666667 93.866667 93.866667 93.866667h441.6c57.6 0 104.533333-46.933333 104.533333-104.533333V330.666667c0-51.2-42.666667-93.866667-93.866667-93.866667H298.666667z" p-id="1711"></path><path d="M360.533333 298.666667c-17.066667 0-32-14.933333-32-32V151.466667c0-17.066667 14.933333-32 32-32s32 14.933333 32 32v113.066666c0 19.2-12.8 34.133333-32 34.133334zM689.066667 298.666667c-17.066667 0-32-14.933333-32-32V151.466667c0-17.066667 14.933333-32 32-32s32 14.933333 32 32v113.066666c0 19.2-14.933333 34.133333-32 34.133334zM878.933333 428.8H172.8c-17.066667 0-32-14.933333-32-32s14.933333-32 32-32h706.133333c17.066667 0 32 14.933333 32 32s-14.933333 32-32 32z" p-id="1712"></path><path d="M605.866667 646.4h-162.133334c-17.066667 0-32-14.933333-32-32s14.933333-32 32-32h162.133334c17.066667 0 32 14.933333 32 32s-14.933333 32-32 32z" fill="#FBAA00" p-id="1713" data-spm-anchor-id="a313x.7781069.0.i1" class=""></path></svg>