<?xml version="1.0" standalone="no"?><!DOCTYPE svg PUBLIC "-//W3C//DTD SVG 1.1//EN" "http://www.w3.org/Graphics/SVG/1.1/DTD/svg11.dtd"><svg t="1647158164149" class="icon" viewBox="0 0 1024 1024" version="1.1" xmlns="http://www.w3.org/2000/svg" p-id="1150" xmlns:xlink="http://www.w3.org/1999/xlink" width="200" height="200"><defs><style type="text/css"></style></defs><path d="M710.4 904.533333H373.333333c-119.466667 0-215.466667-96-215.466666-213.333333V339.2c0-100.266667 81.066667-181.333333 181.333333-181.333333h253.866667c17.066667 0 32 14.933333 32 32s-14.933333 32-32 32H341.333333c-66.133333 0-117.333333 53.333333-117.333333 117.333333v352c0 83.2 68.266667 149.333333 151.466667 149.333333h337.066666c72.533333 0 130.133333-57.6 130.133334-130.133333V450.133333c0-17.066667 14.933333-32 32-32s32 14.933333 32 32v262.4c-2.133333 106.666667-89.6 192-196.266667 192z" p-id="1151"></path><path d="M499.2 603.733333c-8.533333 0-17.066667-2.133333-21.333333-8.533333-12.8-12.8-12.8-32 0-44.8L825.6 189.866667c12.8-12.8 32-12.8 44.8 0 12.8 12.8 12.8 32 0 44.8L522.666667 593.066667c-6.4 6.4-14.933333 10.666667-23.466667 10.666666z" fill="#FBAA00" p-id="1152"></path></svg>