<?xml version="1.0" standalone="no"?><!DOCTYPE svg PUBLIC "-//W3C//DTD SVG 1.1//EN" "http://www.w3.org/Graphics/SVG/1.1/DTD/svg11.dtd"><svg t="1647059955428" class="icon" viewBox="0 0 1024 1024" version="1.1" xmlns="http://www.w3.org/2000/svg" p-id="6985" xmlns:xlink="http://www.w3.org/1999/xlink" width="200" height="200"><defs><style type="text/css"></style></defs><path d="M243.607762 512.36839 511.605515 780.325212l268.085758-267.956821L779.691273 244.369613 511.605515 244.369613 243.607762 512.36839zM612.105441 344.825536c18.495236-18.451234 48.548716-18.451234 67.000973 0 18.537192 18.581194 18.537192 48.504714 0 67.044976-18.451234 18.449187-48.504714 18.449187-67.000973 0C593.612251 393.331273 593.612251 363.407754 612.105441 344.825536zM779.95324 65.355497 243.998665 65.355497c-98.623181 0-178.709171 79.997985-178.709171 178.621167L65.289494 779.977287c0 98.711186 80.08599 178.665169 178.709171 178.665169l535.954575 0c98.755188 0 178.75522-79.953983 178.75522-178.665169L958.70846 243.976664C958.70846 145.353482 878.708428 65.355497 779.95324 65.355497zM869.286848 735.309972c0 73.979922-59.932997 134.042879-133.954875 134.042879L288.623002 869.352851c-73.979922 0-133.912919-60.062957-133.912919-134.042879L154.710083 288.599977c0-73.979922 59.932997-133.954875 133.912919-133.954875l446.708971 0c74.021877 0 133.954875 59.974953 133.954875 133.954875L869.286848 735.309972z" p-id="6986" fill="#bfbfbf"></path></svg>