<?xml version="1.0" standalone="no"?><!DOCTYPE svg PUBLIC "-//W3C//DTD SVG 1.1//EN" "http://www.w3.org/Graphics/SVG/1.1/DTD/svg11.dtd"><svg class="icon" width="200px" height="200.00px" viewBox="0 0 1024 1024" version="1.1" xmlns="http://www.w3.org/2000/svg"><path fill="#bfbfbf" d="M39.384615 896c0 43.323077 35.446154 78.769231 78.769231 78.769231h834.953846c17.723077 0 31.507692-13.784615 31.507693-31.507693v-55.138461c0-17.723077-13.784615-31.507692-31.507693-31.507692H187.076923c-15.753846 0-29.538462-13.784615-29.538461-29.538462V80.738462c0-17.723077-13.784615-31.507692-31.507693-31.507693H70.892308c-17.723077 0-31.507692 13.784615-31.507693 31.507693v815.261538z m939.323077-618.338462c0-33.476923-25.6-59.076923-59.076923-59.076923-17.723077 0-31.507692 7.876923-43.323077 17.723077l-169.353846 169.353846L590.769231 295.384615l-1.969231-1.96923-3.938462-3.938462c-1.969231 0-1.969231-1.969231-3.938461-1.969231-1.969231-1.969231-3.938462-1.969231-5.907692-3.938461-1.969231 0-1.969231-1.969231-3.938462-1.969231s-3.938462-1.969231-7.876923-1.969231c-1.969231 0-1.969231 0-3.938462-1.969231-3.938462 0-7.876923-1.969231-11.815384-1.96923-3.938462 0-7.876923 0-11.815385 1.96923-1.969231 0-1.969231 0-3.938461 1.969231-1.969231 0-5.907692 1.969231-7.876923 1.969231-1.969231 0-1.969231 1.969231-3.938462 1.969231-1.969231 1.969231-3.938462 1.969231-5.907692 3.938461-1.969231 0-1.969231 1.969231-3.938462 3.938462s-3.938462 1.969231-5.907692 3.938461L279.630769 521.846154c-11.815385 11.815385-19.692308 25.6-19.692307 43.323077 0 33.476923 25.6 59.076923 59.076923 59.076923 13.784615 0 27.569231-5.907692 37.415384-13.784616l192.984616-191.015384 112.246153 110.276923c1.969231 1.969231 3.938462 1.969231 5.907693 3.938461l3.938461 3.938462c1.969231 1.969231 3.938462 1.969231 5.907693 3.938462 1.969231 0 1.969231 1.969231 3.938461 1.96923 1.969231 1.969231 5.907692 1.969231 7.876923 1.969231 1.969231 0 1.969231 0 3.938462 1.969231 3.938462 0 7.876923 1.969231 11.815384 1.969231 3.938462 0 7.876923 0 11.815385-1.969231h3.938462c1.969231 0 3.938462-1.969231 7.876923-1.969231 1.969231 0 1.969231-1.969231 3.938461-1.969231s3.938462-1.969231 5.907692-3.938461c1.969231 0 1.969231-1.969231 3.938462-1.969231l1.969231-1.969231 1.969231-1.969231 1.96923-1.96923 212.676923-210.707693c9.846154-11.815385 17.723077-25.6 17.723077-43.323077z" /></svg>