<?xml version="1.0" standalone="no"?><!DOCTYPE svg PUBLIC "-//W3C//DTD SVG 1.1//EN" "http://www.w3.org/Graphics/SVG/1.1/DTD/svg11.dtd"><svg t="1648029207748" class="icon" viewBox="0 0 1024 1024" version="1.1" xmlns="http://www.w3.org/2000/svg" p-id="2692" xmlns:xlink="http://www.w3.org/1999/xlink" width="200" height="200"><defs><style type="text/css"></style></defs><path d="M837.678545 506.181818a299.830303 299.830303 0 0 0-88.12606-212.743757A299.799273 299.799273 0 0 0 536.824242 205.312a299.876848 299.876848 0 0 0-212.728242 88.126061 299.938909 299.938909 0 0 0-79.515152 140.986181l-14.987636-33.745454a22.698667 22.698667 0 0 0-29.944242-11.512243c-5.523394 2.466909-9.774545 6.935273-11.946667 12.582788-2.172121 5.66303-2.01697 11.80703 0.449939 17.34594l46.467879 104.634182a24.048485 24.048485 0 0 0 3.397818 5.492363c0.248242 0.310303 0.512 0.620606 0.791273 0.899879l0.077576 0.093091 0.418909 0.434424 0.449939 0.434424 0.046546 0.062061 0.589576 0.527515 0.465454 0.418909a26.903273 26.903273 0 0 0 2.358303 1.737697 19.347394 19.347394 0 0 0 1.349818 0.775758l0.139637 0.093091c0.930909 0.496485 1.861818 0.930909 2.839272 1.272242l0.062061 0.03103c0.418909 0.155152 0.853333 0.294788 1.318788 0.434425l0.155151 0.046545 0.108606 0.03103c0.434424 0.124121 0.837818 0.232727 1.225697 0.310303l0.201697 0.046546 0.077576 0.03103 1.349818 0.248243 0.48097 0.046545 0.093091 0.015515c0.263758 0.046545 0.54303 0.062061 0.806788 0.093091h0.108606c0.186182 0.015515 0.372364 0.046545 0.574061 0.046546l0.822303 0.03103h0.06206l0.465455 0.015515c0.589576 0 1.210182-0.015515 1.892848-0.077576h0.124121a22.217697 22.217697 0 0 0 3.832243-0.682666l0.248242-0.077576 0.046546-0.015515c0.449939-0.124121 0.899879-0.263758 1.365333-0.434425l0.077576-0.03103 0.418909-0.155151c0.403394-0.139636 0.791273-0.310303 1.179151-0.465455l0.046546-0.03103 0.201697-0.093091c0.186182-0.093091 0.356848-0.155152 0.512-0.248243a22.264242 22.264242 0 0 0 1.675636-0.899878l0.046546-0.031031c1.241212-0.744727 2.389333-1.582545 3.413333-2.528969l86.140121-75.450182a22.698667 22.698667 0 0 0-14.956606-39.718788 22.652121 22.652121 0 0 0-14.925576 5.616485l-40.897939 35.824485C308.782545 338.928485 414.564848 250.662788 536.824242 250.662788c140.877576 0 255.503515 114.625939 255.503516 255.51903" fill="#F8D02D" p-id="2693"></path><path d="M509.129697 720.973576h-94.223515c-8.781576-0.651636-15.530667-4.313212-20.247273-10.984728a47.755636 47.755636 0 0 1-8.548848-22.217696c0.977455-8.129939 3.816727-14.801455 8.533333-20.014546 4.732121-5.213091 11.481212-8.129939 20.262788-8.781576h94.223515V628.208485l-94.223515-0.48097c-8.781576-0.651636-15.530667-3.739152-20.247273-9.27806-4.732121-5.538909-7.571394-12.536242-8.548848-20.992 0.977455-8.129939 3.816727-14.801455 8.533333-20.014546 4.732121-5.213091 11.481212-8.145455 20.262788-8.797091h70.314666l-65.427393-115.215515a73.278061 73.278061 0 0 1-9.278061-14.894545 40.292848 40.292848 0 0 1-3.909818-19.766303c1.629091-9.107394 4.887273-16.508121 9.774545-22.217697 4.871758-5.694061 13.994667-9.355636 27.337697-10.984728 7.804121 0.667152 14.801455 3.335758 20.992 8.067879 6.190545 4.716606 11.23297 9.836606 15.142788 15.36l74.20897 135.726546 81.516606-136.688485c3.909818-5.538909 8.952242-10.410667 15.142788-14.646303 6.17503-4.235636 13.187879-6.826667 20.992-7.819637 4.887273 0.325818 9.355636 0.977455 13.420606 1.954909s7.64897 2.606545 10.736485 4.887273c3.10303 2.280727 5.709576 5.538909 7.819636 9.774546 2.125576 4.220121 3.661576 9.75903 4.63903 16.601212 0 9.417697-3.258182 18.369939-9.774545 26.841212l-75.667394 123.035151h71.773091c8.455758 0.636121 15.127273 3.568485 20.014545 8.781576 4.887273 5.213091 7.64897 11.884606 8.300606 20.014546-0.651636 8.455758-3.506424 15.623758-8.533333 21.472969-5.057939 5.864727-11.80703 9.122909-20.278303 9.774546l-93.246061 0.480969v29.789091h93.742546c8.455758 0.651636 15.127273 3.894303 20.014545 9.774546 4.887273 5.849212 7.64897 12.846545 8.300606 20.976485-0.651636 8.471273-3.413333 15.546182-8.300606 21.240242-4.887273 5.694061-11.558788 8.874667-20.014545 9.526303l-93.742546-0.496485v51.758546c-1.303273 27.663515-16.446061 41.487515-45.397333 41.487515-14.320485 0-25.475879-3.413333-33.435152-10.24-7.990303-6.826667-12.303515-17.252848-12.955151-31.247515v-50.781091z" fill="#444444" p-id="2694"></path></svg>