<?xml version="1.0" standalone="no"?><!DOCTYPE svg PUBLIC "-//W3C//DTD SVG 1.1//EN" "http://www.w3.org/Graphics/SVG/1.1/DTD/svg11.dtd"><svg t="1648029191108" class="icon" viewBox="0 0 1024 1024" version="1.1" xmlns="http://www.w3.org/2000/svg" p-id="2124" xmlns:xlink="http://www.w3.org/1999/xlink" width="200" height="200"><defs><style type="text/css"></style></defs><path d="M796.945998 747.256242a5.383758 5.383758 0 0 1-5.383758 5.383758H370.403452v-20.247273a20.262788 20.262788 0 1 0-40.525576 0v20.247273h-86.884848l34.319515-55.032242c4.080485-6.578424 4.080485-14.894545 0-21.457455l-46.964364-75.29503 46.964364-75.326061a20.293818 20.293818 0 0 0 0-21.441939l-46.964364-75.310546 46.964364-75.310545c4.080485-6.562909 4.080485-14.894545 0-21.457455L242.977513 276.976485H329.877876v20.262788a20.247273 20.247273 0 1 0 40.525576 0V276.976485l426.542546 470.279757z" fill="#F8D02D" p-id="2125"></path><path d="M667.022119 511.162182a20.262788 20.262788 0 0 0 0.03103-40.510061l-49.63297-0.046545 54.923637-65.427394a20.247273 20.247273 0 1 0-31.030303-26.034424l-64.574061 76.908606-64.54303-76.908606a20.278303 20.278303 0 0 0-31.045818 26.034424l54.861575 65.365333-52.317091-0.03103h-0.03103a20.262788 20.262788 0 0 0 0 40.51006l71.478303 0.062061-0.03103 30.782061-71.416243-0.046546h-0.03103a20.262788 20.262788 0 0 0-0.015515 40.510061l71.431758 0.06206-0.046546 55.047758c-0.015515 11.201939 9.045333 20.262788 20.231758 20.278303h0.015515c11.170909 0 20.262788-9.060848 20.262788-20.247273l0.046545-55.047757 71.416243 0.046545h0.03103a20.262788 20.262788 0 0 0 0-40.51006l-71.400727-0.062061 0.015515-30.782061 71.369697 0.046546z" fill="#3E3A39" p-id="2126"></path><path d="M796.945998 747.256242a5.383758 5.383758 0 0 1-5.383758 5.383758H370.403452v-20.247273a20.262788 20.262788 0 1 0-40.525576 0v20.247273h-86.884848l34.319515-55.032242c4.080485-6.578424 4.080485-14.894545 0-21.457455l-46.964364-75.29503 46.964364-75.326061a20.293818 20.293818 0 0 0 0-21.441939l-46.964364-75.310546L277.312543 353.466182c4.080485-6.562909 4.080485-14.894545 0-21.457455L242.977513 276.976485H329.877876v20.262788a20.247273 20.247273 0 1 0 40.525576 0V276.976485h421.158788c2.978909 0 5.383758 2.404848 5.383758 5.368242v464.911515zM791.56224 236.450909H206.470361A20.262788 20.262788 0 0 0 189.279573 267.434667l46.964364 75.310545-46.964364 75.310546c-4.096 6.562909-4.096 14.894545 0 21.457454l46.964364 75.29503-46.964364 75.326061a20.278303 20.278303 0 0 0 0 21.441939l46.964364 75.310546-46.964364 75.29503A20.262788 20.262788 0 0 0 206.470361 793.165576h585.091879a45.955879 45.955879 0 0 0 45.909333-45.909334V282.344727A45.955879 45.955879 0 0 0 791.56224 236.450909z" fill="#3E3A39" p-id="2127"></path><path d="M350.140664 364.00097c-11.186424 0-20.262788 9.060848-20.262788 20.262788v87.04a20.247273 20.247273 0 1 0 40.525576 0v-87.04c0-11.201939-9.076364-20.262788-20.262788-20.262788m0 174.08c-11.186424 0-20.262788 9.060848-20.262788 20.262788v87.04a20.247273 20.247273 0 1 0 40.525576 0v-87.04c0-11.201939-9.076364-20.262788-20.262788-20.262788" fill="#3E3A39" p-id="2128"></path></svg>